<svg width="24" height="24" viewBox="0 0 24 24" fill="none" xmlns="http://www.w3.org/2000/svg">
<path d="M19 7L18.133 17.142C18.0971 17.6466 17.8713 18.1188 17.5011 18.4636C17.1309 18.8083 16.6439 19 16.138 19H7.862C7.35614 19 6.86907 18.8083 6.49889 18.4636C6.1287 18.1188 5.90292 17.6466 5.867 17.142L5 7M10 11V15M14 11V15M15 7V4C15 3.73478 14.8946 3.48043 14.7071 3.29289C14.5196 3.10536 14.2652 3 14 3H10C9.73478 3 9.48043 3.10536 9.29289 3.29289C9.10536 3.48043 9 3.73478 9 4V7M4 7H20" stroke="#999999" stroke-width="2" stroke-linecap="round" stroke-linejoin="round"/>
</svg>
