<svg width="24" height="24" viewBox="0 0 24 24" fill="none" xmlns="http://www.w3.org/2000/svg">
<path d="M14.5 7.5L16.5 9.5M6.66667 20L20 6.66667L17.3333 4L4 17.3333L6.66667 20ZM10 2C10 2.53043 10.2107 3.03914 10.5858 3.41421C10.9609 3.78929 11.4696 4 12 4C11.4696 4 10.9609 4.21071 10.5858 4.58579C10.2107 4.96086 10 5.46957 10 6C10 5.46957 9.78929 4.96086 9.41421 4.58579C9.03914 4.21071 8.53043 4 8 4C8.53043 4 9.03914 3.78929 9.41421 3.41421C9.78929 3.03914 10 2.53043 10 2ZM19 13C19 13.5304 19.2107 14.0391 19.5858 14.4142C19.9609 14.7893 20.4696 15 21 15C20.4696 15 19.9609 15.2107 19.5858 15.5858C19.2107 15.9609 19 16.4696 19 17C19 16.4696 18.7893 15.9609 18.4142 15.5858C18.0391 15.2107 17.5304 15 17 15C17.5304 15 18.0391 14.7893 18.4142 14.4142C18.7893 14.0391 19 13.5304 19 13Z" stroke="white" stroke-width="1.5" stroke-linecap="round" stroke-linejoin="round"/>
</svg>
