<svg width="101" height="22" viewBox="0 0 101 22" fill="none" xmlns="http://www.w3.org/2000/svg">
<path fill-rule="evenodd" clip-rule="evenodd" d="M9.25586 4.43162C14.3671 4.43151 18.5107 2.37627 18.5107 7.91404C18.5106 13.4517 14.367 17.9411 9.25586 17.9414C4.1445 17.9414 0.000142654 13.4518 0 7.91404C0 2.37612 4.14441 4.43162 9.25586 4.43162ZM12.7734 8.42869C12.2296 8.42869 11.7883 8.9028 11.7881 9.48728C11.7881 9.70806 11.7381 9.93545 11.6309 10.1582C11.5229 10.3823 11.3564 10.6033 11.1279 10.7998C10.8991 10.9965 10.6162 11.1618 10.292 11.2773C9.96802 11.3927 9.6153 11.4531 9.25586 11.4531C8.89628 11.4531 8.54285 11.3927 8.21875 11.2773C7.89474 11.1619 7.61252 10.9964 7.38379 10.7998C7.15523 10.6033 6.98788 10.3823 6.87988 10.1582C6.77265 9.93547 6.72266 9.70804 6.72266 9.48728C6.72249 8.90294 6.28196 8.42891 5.73828 8.42869C5.19443 8.42869 4.7531 8.9028 4.75293 9.48728C4.75293 10.0607 4.88469 10.6208 5.13086 11.1318C5.37639 11.6414 5.7287 12.088 6.15332 12.4531C6.57764 12.8178 7.07053 13.0986 7.59961 13.2871C8.12899 13.4756 8.69165 13.5703 9.25586 13.5703C9.81987 13.5702 10.3819 13.4755 10.9111 13.2871C11.4404 13.0986 11.934 12.818 12.3584 12.4531C12.783 12.088 13.1343 11.6414 13.3799 11.1318C13.6261 10.6207 13.7578 10.0607 13.7578 9.48728C13.7576 8.90295 13.3171 8.42893 12.7734 8.42869Z" fill="#7747B5"/>
<path d="M92.9965 11.4657C92.9965 10.5719 93.0071 9.73916 93.0281 8.96753C93.0388 8.57708 92.7631 8.23611 92.3783 8.16904C92.0767 8.11646 91.8301 7.8932 91.7682 7.59337C91.7347 7.43112 91.7088 7.2802 91.6904 7.14062C91.6548 6.86941 91.6369 6.58036 91.6369 6.27347L91.6583 6.05935C91.6888 5.91729 91.7915 5.79083 91.9333 5.75952L92.4989 5.63471C92.941 5.53715 93.2637 5.16154 93.3392 4.71515C93.379 4.47984 93.4289 4.23204 93.489 3.97176C93.5196 3.83909 93.5506 3.71474 93.582 3.59869C93.7397 3.01643 94.1373 2.51064 94.7201 2.35521C95.0413 2.26957 95.3875 2.22674 95.7586 2.22674C96.0726 2.22674 96.3759 2.25886 96.6685 2.32309C97.165 2.41765 97.4815 2.87047 97.4822 3.37581C97.4822 3.38175 97.4822 3.38769 97.4822 3.39366C97.4822 3.55551 97.4797 3.72409 97.4747 3.89939C97.457 4.5267 98.011 5.0289 98.6284 4.91664C99.0261 4.84433 99.4426 5.02568 99.5604 5.41233C99.6452 5.69035 99.6875 5.98096 99.6875 6.28417C99.6875 6.6553 99.6411 6.99074 99.5484 7.2905C99.5191 7.39296 99.4856 7.50001 99.448 7.61164C99.3002 8.05042 99.0277 8.34194 98.5667 8.38512C97.886 8.44888 97.2027 8.97215 97.124 9.65132C97.0031 10.6951 96.8227 12.0064 96.5829 13.5854L96.5314 13.9358C96.5301 13.9443 96.533 13.953 96.5391 13.9591C96.5463 13.9663 96.5569 13.9689 96.5666 13.9659L97.8737 13.5598C98.6174 13.3288 99.4886 13.4779 99.7749 14.2021C99.8909 14.4955 99.9724 14.8288 100.019 15.2019C100.019 15.2519 99.7875 15.4874 99.3235 15.9085C98.8668 16.3225 98.2922 16.7079 97.5999 17.0647C96.9076 17.4144 96.1547 17.5893 95.341 17.5893C93.9208 17.5893 93.1642 16.7221 93.0715 14.9878C93.0215 14.11 92.9965 12.9359 92.9965 11.4657Z" fill="#7747B5"/>
<path d="M82.8048 14.7203C83.06 13.9866 83.963 13.7988 84.6912 14.0694C84.7937 14.1075 84.8893 14.1425 84.978 14.1743C85.3563 14.3099 85.7702 14.4277 86.2199 14.5276C86.6767 14.6275 87.1299 14.6775 87.5795 14.6775C87.6969 14.6775 87.7945 14.6713 87.8725 14.659C87.9631 14.6447 88.039 14.5844 88.0612 14.4955C88.0827 14.4312 88.0934 14.367 88.0934 14.3028C88.0934 14.16 88.0113 14.0423 87.8471 13.9495C87.5902 13.8067 87.1334 13.5819 86.4768 13.275C85.5775 12.8468 84.8638 12.465 84.3357 12.1295C83.8147 11.7941 83.3722 11.348 83.0082 10.7913C82.6513 10.2346 82.4729 9.5352 82.4729 8.69302C82.4729 7.48686 82.8333 6.51978 83.5542 5.7918C84.275 5.05668 85.417 4.68912 86.98 4.68912C88.4377 4.68912 89.6419 4.83772 90.5926 5.13492C91.0673 5.28332 91.4014 5.70124 91.4014 6.19861C91.4014 6.79813 91.3086 7.41192 91.1231 8.03998C90.8464 8.96573 89.8166 9.22568 88.9192 8.86746C88.8388 8.83537 88.7562 8.8022 88.6715 8.76796C88.1291 8.55385 87.6973 8.3897 87.3761 8.2755C87.2233 8.21645 87.0763 8.16586 86.9353 8.12371C86.658 8.04081 86.3209 8.03075 86.1664 8.2755C86.0807 8.40397 86.0379 8.55742 86.0379 8.73584C86.0379 8.89286 86.0843 9.0249 86.1771 9.13195C86.2698 9.23901 86.3733 9.32465 86.4875 9.38889C86.6088 9.44598 86.7801 9.52449 87.0014 9.62441C87.1156 9.67437 87.2226 9.72076 87.3226 9.76358C87.4225 9.79927 87.5153 9.83496 87.6009 9.87064C88.1576 10.1062 88.5965 10.2989 88.9177 10.4487C89.2389 10.5986 89.5493 10.777 89.8491 10.984C90.3986 11.3623 90.8304 11.7941 91.1445 12.2794C91.4585 12.7647 91.6155 13.2964 91.6155 13.8745C91.6155 14.6739 91.3871 15.3662 90.9304 15.9514C90.4807 16.5295 89.9026 16.9506 89.196 17.2147C88.8249 17.3503 88.4181 17.4466 87.9756 17.5037C87.5402 17.568 87.0299 17.6001 86.4447 17.6001C85.7524 17.6001 85.0387 17.4681 84.3036 17.204C83.9644 17.0776 83.6624 16.9125 83.3976 16.7087C82.8013 16.2498 82.5669 15.4341 82.8048 14.7203Z" fill="#7747B5"/>
<path d="M70.9215 11.1553C70.9215 9.9206 71.1285 8.81792 71.5424 7.84728C71.9564 6.87664 72.5952 6.1094 73.4587 5.54557C74.3295 4.97461 75.4143 4.68912 76.7132 4.68912C77.3913 4.68912 78.0693 4.7712 78.7473 4.93535C79.4253 5.09237 79.9999 5.35644 80.4709 5.72757C80.9063 6.07728 81.2203 6.54119 81.413 7.1193C81.6128 7.69026 81.7128 8.32546 81.7128 9.0249C81.7128 9.24553 81.7039 9.46859 81.6861 9.69407C81.6467 10.1948 81.4573 10.6716 81.0918 11.0161C80.842 11.2445 80.5494 11.4693 80.214 11.6906C80.1657 11.7225 80.1176 11.7533 80.0697 11.7831C79.545 12.1096 78.9264 12.2366 78.3084 12.2366C77.7446 12.2366 77.1736 12.2116 76.5955 12.1616C75.8198 12.0946 75.1302 12.7715 75.5394 13.434C75.5689 13.4817 75.5998 13.5287 75.632 13.5748C75.946 14.0244 76.4456 14.2492 77.1308 14.2492C77.195 14.2492 77.2985 14.2421 77.4412 14.2278C77.8766 14.185 78.3833 14.0708 78.9614 13.8852C79.23 13.7968 79.4978 13.7024 79.7649 13.6019C80.3387 13.3861 81.0435 13.4811 81.306 14.0351C81.6347 14.7292 81.2881 15.535 80.6791 16.003C80.6192 16.0491 80.5569 16.0961 80.4923 16.1441C79.9999 16.5153 79.3968 16.8507 78.6831 17.1505C77.9694 17.4431 77.2235 17.5894 76.4456 17.5894C75.2751 17.5894 74.2724 17.3075 73.4373 16.7436C72.6094 16.1727 71.9814 15.4019 71.5531 14.4312C71.132 13.4535 70.9215 12.3615 70.9215 11.1553ZM77.8517 8.97398C77.8284 8.79131 77.7506 8.61111 77.5825 8.53588C77.5055 8.50142 77.4156 8.47173 77.3128 8.44679C77.0772 8.38256 76.831 8.35044 76.5741 8.35044C76.3671 8.35044 76.1566 8.36829 75.9424 8.40397C75.8655 8.41723 75.7999 8.43099 75.7457 8.44524C75.6205 8.47813 75.5408 8.5711 75.4876 8.68914C75.1683 9.39766 75.832 10.0784 76.6054 10.0031L77.0662 9.95825C77.5587 9.91029 77.9142 9.46485 77.8517 8.97398Z" fill="#7747B5"/>
<path d="M59.3595 10.4594C59.3595 7.68685 59.4037 5.63718 59.4922 4.31038C59.5195 3.90143 59.2396 3.53106 58.836 3.45963C58.5352 3.40639 58.2896 3.18341 58.2325 2.88332C58.1783 2.59886 58.1392 2.30568 58.1149 2.00378C58.076 1.51828 58.2567 1.04476 58.6576 0.7682C58.6666 0.761963 58.6758 0.755694 58.685 0.749393C58.9776 0.549555 59.3166 0.374697 59.702 0.224818C60.0946 0.0749393 60.4836 0 60.869 0C61.8253 0 62.5676 0.206975 63.0957 0.620926C63.631 1.03488 63.8986 1.74145 63.8986 2.74064C63.8986 3.24023 63.863 4.00747 63.7916 5.04235C63.7202 6.07008 63.5882 7.31907 63.3955 8.78931C63.2064 10.2316 62.9556 11.7358 62.6429 13.3017C62.632 13.3562 62.6568 13.4116 62.7046 13.4397C62.7625 13.4738 62.8368 13.4583 62.8759 13.4037C63.4149 12.6515 63.9343 11.8271 64.4339 10.9304C64.8371 10.2014 65.1762 9.51296 65.4511 8.86512C65.5759 8.57124 65.4019 8.24068 65.0917 8.16494C64.8872 8.11499 64.73 7.94906 64.7036 7.74014C64.6523 7.33326 64.6266 6.87293 64.6266 6.35914C64.6266 6.10954 64.7061 5.86219 64.8855 5.68866C65.1197 5.4622 65.4045 5.25747 65.74 5.07446C66.2182 4.81753 66.8106 4.68906 67.5171 4.68906C68.0239 4.68906 68.4628 4.78541 68.8339 4.97811C69.2051 5.16368 69.4905 5.42418 69.6904 5.75962C69.8902 6.09506 69.9901 6.48047 69.9901 6.91583C69.9901 7.24413 69.9402 7.5546 69.8403 7.84722C69.7403 8.1327 69.5905 8.43602 69.3906 8.75719C68.9699 9.42338 68.2931 10.3192 67.3604 11.4448C66.9778 11.9065 66.9434 12.572 67.3174 13.0407C67.412 13.1592 67.506 13.2736 67.5994 13.384C67.8058 13.6279 68.1631 13.6981 68.395 13.4784C68.5377 13.3499 68.7197 13.1643 68.941 12.9217C69.0752 12.7813 69.2934 12.7638 69.4483 12.8809L69.8349 13.1733C70.2474 13.4851 70.493 13.9809 70.424 14.4934C70.3063 15.3686 70.0546 16.0651 69.669 16.583C69.1765 17.2467 68.5235 17.5786 67.7098 17.5786C66.8177 17.5786 66.1468 17.3074 65.6972 16.765C65.0214 15.9497 63.7136 15.541 62.961 16.2861C62.8496 16.3964 62.7411 16.5025 62.6354 16.6044C62.5339 16.7023 62.4383 16.793 62.3488 16.8766C61.8017 17.3871 61.0686 17.6384 60.3444 17.4502C59.766 17.2998 59.5253 16.6902 59.4877 16.0938C59.4435 15.3916 59.4115 14.6947 59.3916 14.0029C59.3702 13.0038 59.3595 11.8226 59.3595 10.4594Z" fill="#7747B5"/>
<path d="M47.7545 11.1553C47.7545 9.9206 47.9615 8.81792 48.3755 7.84728C48.7894 6.87664 49.4282 6.1094 50.2918 5.54557C51.1625 4.97461 52.2473 4.68912 53.5463 4.68912C53.9888 4.68912 54.4955 4.71767 55.0665 4.77477C55.5517 4.8167 56.0192 4.87873 56.4692 4.96088C56.6388 4.99183 56.7987 5.06131 56.94 5.16017C57.2611 5.38142 57.4967 5.55985 57.6465 5.69545C58.0174 5.99885 58.1439 6.50041 58.0939 6.97692C58.0673 7.2311 58.0288 7.51765 57.9784 7.83657C57.8785 8.50746 57.75 9.13195 57.593 9.71006C57.5896 9.72262 57.5862 9.7351 57.5828 9.74747C57.3777 10.4923 56.7704 11.0054 55.9979 11.0054C55.7409 11.0054 55.4983 10.9876 55.2699 10.9519C54.943 10.8886 54.7445 10.5953 54.7069 10.2645L54.6276 9.56545C54.5718 9.07422 54.333 8.62521 53.8478 8.53022C53.8331 8.52735 53.8183 8.52452 53.8032 8.52173C53.425 8.44322 53.0752 8.40397 52.7541 8.40397C52.5787 8.40397 52.4275 8.51795 52.3648 8.68175C52.2541 8.97078 52.1662 9.31355 52.101 9.71006C52.0154 10.2311 51.9726 10.7628 51.9726 11.3052C51.9726 12.0903 52.101 12.7576 52.358 13.3071C52.6149 13.8496 53.1395 14.1208 53.9317 14.1208C54.3242 14.1208 54.7096 14.0565 55.0879 13.9281C55.4733 13.7996 55.9586 13.6033 56.5439 13.3393C56.872 13.1848 57.2659 13.2538 57.4822 13.5449C57.5906 13.6907 57.6846 13.8398 57.7643 13.9923C58.1368 14.705 57.8028 15.5659 57.177 16.071C56.8762 16.3138 56.5367 16.5559 56.1585 16.7972C55.3377 17.3253 54.3778 17.5894 53.2786 17.5894C52.1082 17.5894 51.1054 17.3075 50.2704 16.7436C49.4425 16.1727 48.8144 15.4019 48.3862 14.4312C47.9651 13.4535 47.7545 12.3615 47.7545 11.1553Z" fill="#7747B5"/>
<path d="M35.7643 11.0483C35.7643 9.75645 35.9713 8.63593 36.3852 7.68669C36.7992 6.73746 37.4344 6.00234 38.2908 5.48134C39.1473 4.95319 40.2214 4.68912 41.5132 4.68912C42.9406 4.68912 44.0612 4.95676 44.8748 5.49204C45.6884 6.02019 46.2558 6.75531 46.577 7.6974C46.9053 8.63949 47.0694 9.79213 47.0694 11.1553C47.0694 12.39 46.8518 13.4927 46.4164 14.4634C45.9882 15.4269 45.3387 16.1905 44.468 16.7544C43.6044 17.311 42.5445 17.5894 41.2884 17.5894C39.3471 17.5894 37.9411 16.9934 37.0704 15.8016C36.1997 14.6025 35.7643 13.0181 35.7643 11.0483ZM41.7273 14.4526C42.1727 14.4526 42.5207 14.17 42.64 13.7409C42.6886 13.5663 42.7305 13.3718 42.7658 13.1573C42.8514 12.6363 42.8943 12.0724 42.8943 11.4658C42.8943 10.9091 42.8586 10.3881 42.7872 9.90276C42.7512 9.65446 42.708 9.43338 42.6575 9.23951C42.5701 8.90418 42.3573 8.60513 42.0164 8.54314C41.7809 8.49319 41.5239 8.4682 41.2456 8.4682C40.7439 8.4682 40.3425 8.80852 40.1961 9.28835C40.0393 9.80206 39.9609 10.4208 39.9609 11.1446C39.9609 11.6585 40.0002 12.1831 40.0787 12.7183C40.1251 13.0352 40.1791 13.3345 40.2406 13.6164C40.3211 13.9855 40.5318 14.3182 40.903 14.3884C41.1671 14.4312 41.4419 14.4526 41.7273 14.4526Z" fill="#7747B5"/>
<path d="M23.3404 8.26676C23.0544 8.21953 22.8157 8.01734 22.7401 7.73752C22.6631 7.4524 22.6081 7.18923 22.575 6.94801C22.5496 6.73276 22.5318 6.48009 22.5215 6.18997C22.5066 5.77386 22.695 5.37849 23.0674 5.19229C23.3244 5.05668 23.6313 4.93892 23.9881 4.839C24.345 4.73908 24.7125 4.68912 25.0908 4.68912C25.9544 4.68912 26.5646 4.87469 26.9214 5.24581C27.2854 5.61694 27.4674 6.17363 27.4674 6.91589C27.4674 7.32984 27.4068 7.8901 27.2854 8.59667C27.0856 9.73147 26.9857 10.3274 26.9857 10.3845C26.9857 10.4202 27.0107 10.4559 27.0606 10.4916C27.1106 10.5201 27.1641 10.5344 27.2212 10.5344C27.3269 10.5344 27.3625 10.4079 27.3882 10.3054L27.4567 10.0312L27.6922 9.12125C28.042 7.80089 28.563 6.73389 29.2553 5.92027C29.9476 5.0995 30.8183 4.68912 31.8674 4.68912C32.6525 4.68912 33.2913 4.86041 33.7837 5.20299C34.2833 5.53843 34.6438 5.9845 34.865 6.54119C35.0863 7.09075 35.1969 7.6974 35.1969 8.36115C35.1969 9.26042 35.1112 10.2703 34.94 11.3908C34.7687 12.5042 34.5403 13.5462 34.2548 14.5169C33.9764 15.4661 33.5125 16.2191 32.8631 16.7758C32.2207 17.3253 31.4178 17.6001 30.4543 17.6001C30.1046 17.6001 29.6942 17.543 29.2232 17.4288C29.0901 17.3981 28.9469 17.3607 28.7933 17.3165C28.0802 17.1113 27.318 17.5171 27.1643 18.2431L27.0319 18.8687C27.0298 18.8787 27.0329 18.8892 27.0401 18.8964C27.0464 18.9026 27.0549 18.9058 27.0637 18.9052L28.3342 18.8188C28.8063 18.7866 29.2854 19.0023 29.3944 19.4629C29.4658 19.7412 29.5265 20.0588 29.5764 20.4157C29.5978 20.5582 29.5666 20.6886 29.455 20.7799C29.3781 20.8428 29.2723 20.9248 29.1375 21.0259C28.8235 21.2686 28.406 21.4898 27.885 21.6896C27.3639 21.8966 26.7644 22.0001 26.0864 22.0001C24.5519 22.0001 23.7847 21.1829 23.7847 19.5485V18.8098C23.7847 16.633 23.799 14.6953 23.8275 12.9967C23.8572 11.5791 23.9115 10.2773 23.9904 9.09135C24.0171 8.69022 23.737 8.33226 23.3404 8.26676ZM30.2509 14.7631C30.3524 14.7631 30.4276 14.683 30.4513 14.5842C30.6817 13.622 30.7969 12.215 30.7969 10.3631C30.7969 10.1811 30.7916 10.0181 30.7811 9.87394C30.7656 9.66006 30.6945 9.45115 30.5066 9.34772C30.2388 9.20028 29.9269 9.36669 29.7659 9.62656C29.5903 9.91011 29.338 10.3448 29.009 10.9305C28.4719 11.8803 28.0641 12.6286 27.7854 13.1756C27.7378 13.2691 27.7137 13.3725 27.7137 13.4773C27.7137 13.6993 27.8211 13.9097 28.0124 14.0223C28.3314 14.2101 28.685 14.3714 29.0733 14.5062C29.5871 14.6775 29.9797 14.7631 30.2509 14.7631Z" fill="#7747B5"/>
</svg>
