<svg width="40" height="40" viewBox="0 0 40 40" fill="none" xmlns="http://www.w3.org/2000/svg">
<path fill-rule="evenodd" clip-rule="evenodd" d="M18.5081 8.86319C28.7287 8.86297 37.0143 4.75251 37.0143 15.828C37.014 26.9032 28.7285 35.8821 18.5081 35.8826C8.28738 35.8826 0.000285253 26.9035 0 15.828C0 4.75221 8.28721 8.86319 18.5081 8.86319ZM25.5419 16.8573C24.4544 16.8573 23.5719 17.8055 23.5716 18.9745C23.5716 19.416 23.4717 19.8708 23.2572 20.3163C23.0413 20.7645 22.7084 21.2065 22.2515 21.5995C21.794 21.9929 21.2283 22.3236 20.58 22.5545C19.9322 22.7853 19.2269 22.906 18.5081 22.9061C17.7891 22.9061 17.0824 22.7854 16.4343 22.5545C15.7864 22.3237 15.2221 21.9927 14.7647 21.5995C14.3077 21.2064 13.973 20.7646 13.7571 20.3163C13.5427 19.8709 13.4427 19.416 13.4427 18.9745C13.4424 17.8058 12.5615 16.8577 11.4743 16.8573C10.3868 16.8573 9.50435 17.8055 9.50401 18.9745C9.50401 20.1213 9.76749 21.2414 10.2597 22.2635C10.7507 23.2828 11.4552 24.1759 12.3043 24.9061C13.1527 25.6356 14.1383 26.1972 15.1963 26.574C16.2548 26.9511 17.3799 27.1404 18.5081 27.1404C19.6359 27.1404 20.7598 26.9509 21.818 26.574C22.8764 26.197 23.8633 25.6359 24.712 24.9061C25.5611 24.1759 26.2636 23.2828 26.7546 22.2635C27.2469 21.2414 27.5103 20.1214 27.5103 18.9745C27.51 17.8058 26.629 16.8578 25.5419 16.8573Z" fill="#7747B5"/>
</svg>
